<?xml version="1.0" encoding="UTF-8" standalone="no"?>
<!-- Created with Inkscape (http://www.inkscape.org/) -->

<svg
   xmlns:dc="http://purl.org/dc/elements/1.1/"
   xmlns:cc="http://creativecommons.org/ns#"
   xmlns:rdf="http://www.w3.org/1999/02/22-rdf-syntax-ns#"
   xmlns:svg="http://www.w3.org/2000/svg"
   xmlns="http://www.w3.org/2000/svg"
   xmlns:sodipodi="http://sodipodi.sourceforge.net/DTD/sodipodi-0.dtd"
   xmlns:inkscape="http://www.inkscape.org/namespaces/inkscape"
   width="473.02014"
   height="567.62311"
   id="svg3049"
   version="1.1"
   inkscape:version="0.48.2 r9819"
   sodipodi:docname="Nytt dokument 6">
  <defs
     id="defs3051" />
  <sodipodi:namedview
     id="base"
     pagecolor="#ffffff"
     bordercolor="#666666"
     borderopacity="1.0"
     inkscape:pageopacity="0.0"
     inkscape:pageshadow="2"
     inkscape:zoom="0.35"
     inkscape:cx="351.51004"
     inkscape:cy="73.894205"
     inkscape:document-units="px"
     inkscape:current-layer="layer1"
     showgrid="false"
     fit-margin-top="0"
     fit-margin-left="0"
     fit-margin-right="0"
     fit-margin-bottom="0"
     inkscape:window-width="1374"
     inkscape:window-height="889"
     inkscape:window-x="80"
     inkscape:window-y="179"
     inkscape:window-maximized="0" />
  <metadata
     id="metadata3054">
    <rdf:RDF>
      <cc:Work
         rdf:about="">
        <dc:format>image/svg+xml</dc:format>
        <dc:type
           rdf:resource="http://purl.org/dc/dcmitype/StillImage" />
        <dc:title></dc:title>
      </cc:Work>
    </rdf:RDF>
  </metadata>
  <g
     inkscape:label="Layer 1"
     inkscape:groupmode="layer"
     id="layer1"
     transform="translate(-23.489957,-38.633297)">
    <path
       style="fill:#990000;fill-opacity:1"
       d="m 24.474529,593.90168 c 1.47147,-6.88113 8.00872,-41.17301 14.52726,-76.20419 40.09276,-215.46183 103.303191,-391.8357 160.436801,-447.661344 43.10075,-42.114021 78.48294,-41.885461 121.46951,0.78474 57.5948,57.170974 119.97691,231.304764 160.09016,446.876604 6.51854,35.03118 13.05579,69.32306 14.52726,76.20419 2.15419,10.07396 1.01605,12.47969 -5.84275,12.3498 -5.58685,-0.106 -16.13836,-12.53952 -30.66194,-36.13161 -44.50032,-72.28605 -96.4306,-126.97572 -143.17618,-150.784 -29.89527,-15.22614 -74.98412,-17.19417 -102.61707,-4.47894 -50.28189,23.13704 -105.70406,79.65661 -152.248321,155.26294 -14.52362,23.59209 -25.07513,36.02584 -30.66198,36.13161 -6.8588,0.12967 -7.99694,-2.27584 -5.84275,-12.3498 z M 121.77536,415.81564 c 29.04469,-43.62809 75.85527,-91.97271 99.8081,-103.07882 27.05006,-12.54225 47.95109,-13.22377 71.6556,-2.3364 29.16212,13.39401 73.89817,58.43992 105.25526,105.98428 14.40881,21.84703 27.04303,38.89598 28.07608,37.88658 3.65029,-3.56672 -47.1414,-121.56824 -66.93498,-155.5063 C 289.26872,178.1142 236.45065,174.73751 167.75404,286.49792 142.37831,327.78098 81.646559,467.23918 93.872629,456.15168 c 1.45694,-1.32122 14.013181,-19.47242 27.902731,-40.33604 z"
       id="path3138"
       inkscape:connector-curvature="0" />
  </g>
</svg>
