<?xml version="1.0" encoding="UTF-8" standalone="no"?>
<!-- Created with Inkscape (http://www.inkscape.org/) -->
<svg
   xmlns:svg="http://www.w3.org/2000/svg"
   xmlns="http://www.w3.org/2000/svg"
   version="1.0"
   width="800"
   height="202.74565"
   viewBox="0 0 800 302.572"
   id="Layer_1"
   xml:space="preserve"><defs
   id="defs8" />
<path
   d="M -196.94894,7.4207783e-006 L -119.60248,7.4207783e-006 C -95.170935,0.00030557296 -76.663051,1.9032721 -64.078769,5.7089127 C -51.494784,9.5151382 -41.335398,17.219083 -33.600581,28.820771 C -25.866122,40.422998 -21.998803,59.11504 -21.998612,84.896954 C -21.998803,102.3308 -24.730481,114.48523 -30.193654,121.36028 C -35.657192,128.2357 -46.430438,133.51489 -62.513424,137.19789 C -44.588857,141.24953 -32.434426,147.9713 -26.050094,157.36322 C -19.666134,166.75542 -16.474061,181.15044 -16.473865,200.54833 L -16.473865,228.17206 C -16.474061,248.30675 -18.776037,263.22355 -23.379799,272.92251 C -27.983939,282.62153 -35.319568,289.25122 -45.386708,292.8116 C -55.454182,296.372 -76.079884,298.15219 -107.26388,298.15219 L -196.94894,298.15219 L -196.94894,7.4207783e-006 z M -119.41832,51.011839 L -119.41832,117.3088 C -116.10357,117.18621 -113.52535,117.12483 -111.68367,117.12465 C -104.07191,117.12483 -99.222412,115.25255 -97.135173,111.50782 C -95.048163,107.76346 -94.004601,97.051599 -94.004483,79.372207 C -94.004601,70.041751 -94.864005,63.50414 -96.582698,59.759355 C -98.301622,56.015046 -100.54221,53.651685 -103.30447,52.669263 C -106.06695,51.687332 -111.43823,51.134858 -119.41832,51.011839 L -119.41832,51.011839 z M -119.41832,163.71668 L -119.41832,247.14036 C -108.4917,246.77209 -101.52439,245.05329 -98.516359,241.98393 C -95.508558,238.91468 -94.004601,231.3642 -94.004483,219.33247 L -94.004483,191.52457 C -94.004601,178.75639 -95.355093,171.02175 -98.055964,168.32063 C -100.75706,165.61978 -107.87784,164.08513 -119.41832,163.71668 L -119.41832,163.71668 z M 177.62891,139.59195 L 177.62891,199.44338 C 177.62873,221.41967 176.52378,237.5335 174.31406,247.78491 C 172.10399,258.03643 167.37726,267.61265 160.13388,276.5136 C 152.89016,285.41459 143.59018,291.9829 132.2339,296.21853 C 120.87736,300.45417 107.83283,302.57198 93.100279,302.57199 C 76.64873,302.57198 62.714104,300.7611 51.29636,297.13932 C 39.878505,293.51755 31.008226,288.05419 24.685495,280.74924 C 18.362706,273.44432 13.850834,264.60473 11.149864,254.23045 C 8.4488646,243.85626 7.0983723,228.2949 7.0983833,207.54634 L 7.0983833,144.93254 C 7.0983723,122.21987 9.5538129,104.47931 14.464713,91.710809 C 19.375576,78.942724 28.215162,68.691259 40.983499,60.956383 C 53.751745,53.221982 70.080426,49.354663 89.969589,49.354415 C 106.66649,49.354663 121.00013,51.840797 132.97054,56.812823 C 144.94067,61.785332 154.17927,68.261557 160.68635,76.241517 C 167.19311,84.221921 171.64359,92.447647 174.03782,100.91872 C 176.4317,109.39019 177.62873,122.28125 177.62891,139.59195 L 177.62891,139.59195 z M 103.22898,121.17613 C 103.22888,108.65356 102.55363,100.76545 101.20324,97.511793 C 99.852644,94.258535 96.967501,92.631806 92.547805,92.6316 C 88.127915,92.631806 85.181386,94.258535 83.708209,97.511793 C 82.234857,100.76545 81.498225,108.65356 81.498311,121.17613 L 81.498311,231.48691 C 81.498225,243.02755 82.234857,250.54733 83.708209,254.04629 C 85.181386,257.54534 88.066529,259.29484 92.363646,259.2948 C 96.783343,259.29484 99.699179,257.69881 101.11116,254.50669 C 102.52294,251.31466 103.22888,244.43943 103.22898,233.88097 L 103.22898,121.17613 z M 276.70606,53.774212 L 273.75953,85.817745 C 284.56338,62.859587 300.21681,50.705156 320.71988,49.354415 L 320.71988,135.35631 C 307.09205,135.35647 297.08613,137.19805 290.70208,140.88106 C 284.31784,144.56438 280.38913,149.69011 278.91596,156.25827 C 277.4426,162.82672 276.70597,177.95837 276.70606,201.65328 L 276.70606,298.15219 L 202.30613,298.15219 L 202.30613,53.774212 L 276.70606,53.774212 z M 413.71979,7.4207783e-006 L 413.71979,298.15219 L 337.10996,298.15219 L 337.10996,7.4207783e-006 L 413.71979,7.4207783e-006 z M 506.71969,148.43155 L 436.92372,148.43155 L 436.92372,132.04146 C 436.92371,113.13474 439.10291,98.555556 443.46133,88.303881 C 447.81972,78.052626 456.56723,68.998189 469.70388,61.140542 C 482.84045,53.283369 499.90576,49.354663 520.89987,49.354415 C 546.06805,49.354663 565.03632,53.80515 577.80477,62.705887 C 590.57291,71.607095 598.24616,82.533806 600.82455,95.486053 C 603.40259,108.4387 604.69169,135.11093 604.69187,175.50281 L 604.69187,298.15219 L 532.31768,298.15219 L 532.31768,276.42152 C 527.77501,285.13836 521.91265,291.67597 514.73057,296.03437 C 507.54832,300.39278 498.98497,302.57198 489.0405,302.57199 C 476.0266,302.57198 464.08702,298.91952 453.22172,291.61457 C 442.35637,284.30964 436.92371,268.31859 436.92372,243.64135 L 436.92372,223.56811 C 436.92371,205.27515 439.80885,192.81379 445.57915,186.18398 C 451.34942,179.55441 465.65236,171.81977 488.48802,162.98005 C 512.9196,153.40396 525.99482,146.95843 527.71373,143.64343 C 529.43243,140.32874 530.29184,133.57628 530.29194,123.38603 C 530.29184,110.61791 529.34036,102.3001 527.43749,98.432584 C 525.53442,94.565465 522.37304,92.631806 517.95334,92.6316 C 512.9196,92.631806 509.78891,94.258535 508.56127,97.511793 C 507.33347,100.76545 506.71961,109.20603 506.71969,122.83355 L 506.71969,148.43155 z M 530.29194,181.94834 C 518.38295,190.66528 511.47702,197.97021 509.57414,203.86317 C 507.67109,209.75633 506.71961,218.2276 506.71969,229.27701 C 506.71961,241.9226 507.54832,250.08694 509.20582,253.77006 C 510.86316,257.45326 514.14732,259.29484 519.05829,259.2948 C 523.72353,259.29484 526.76214,257.85227 528.17412,254.96708 C 529.5859,252.08199 530.29184,244.50081 530.29194,232.22354 L 530.29194,181.94834 z M 705.97887,53.774212 L 704.68976,76.241517 C 710.09164,67.27938 716.69064,60.557612 724.48677,56.07619 C 732.28269,51.595253 741.27574,49.354663 751.46595,49.354415 C 764.23411,49.354663 774.66973,52.362578 782.77285,58.378168 C 790.87564,64.394238 796.09345,71.975411 798.4263,81.12171 C 800.75879,90.268444 801.92513,105.52287 801.92531,126.88503 L 801.92531,298.15219 L 727.52538,298.15219 L 727.52538,128.91077 C 727.52527,112.09117 726.9728,101.83971 725.86796,98.156347 C 724.7629,94.473386 721.6936,92.631806 716.66005,92.6316 C 711.38075,92.631806 708.0659,94.749623 706.7155,98.985059 C 705.36492,103.22089 704.68967,114.54661 704.68976,132.96225 L 704.68976,298.15219 L 630.28983,298.15219 L 630.28983,53.774212 L 705.97887,53.774212 z M 996.94892,7.4207783e-006 L 996.94892,298.15219 L 922.54899,298.15219 L 922.54899,280.473 C 915.4281,287.83934 907.93901,293.36408 900.08168,297.04724 C 892.22419,300.7304 883.99846,302.57198 875.40448,302.57199 C 863.86385,302.57198 853.85793,299.53338 845.38669,293.45616 C 836.91539,287.37895 831.48272,280.35025 829.08868,272.37004 C 826.69462,264.38988 825.49759,251.37605 825.4976,233.32849 L 825.4976,118.96623 C 825.49759,100.18229 826.69462,86.86152 829.08868,79.003891 C 831.48272,71.1467 836.97677,64.240773 845.57085,58.286089 C 854.16486,52.331885 864.41632,49.354663 876.32527,49.354415 C 885.53311,49.354663 893.97369,51.012086 901.64703,54.326687 C 909.32019,57.641776 916.28751,62.614043 922.54899,69.243504 L 922.54899,7.4207783e-006 L 996.94892,7.4207783e-006 z M 922.54899,115.28306 C 922.54888,106.32089 921.78156,100.30506 920.24701,97.235556 C 918.71226,94.166456 915.67365,92.631806 911.13118,92.6316 C 906.71129,92.631806 903.73407,94.012991 902.1995,96.77516 C 900.66477,99.537732 899.89744,105.70703 899.89753,115.28306 L 899.89753,234.98592 C 899.89744,244.93051 900.63407,251.46813 902.10743,254.59877 C 903.5806,257.7295 906.40436,259.29484 910.5787,259.2948 C 915.36672,259.29484 918.55879,257.54534 920.15493,254.04629 C 921.75086,250.54733 922.54888,241.98399 922.54899,228.35622 L 922.54899,115.28306 z "
   style="font-size:377.15606689px;font-family:Impact"
   id="text3" />

<text
   x="-1.4923724e+018"
   y="-1.4923724e+018"
   style="font-size:49.7845993px;font-family:Haettenschweiler"
   id="text5"> </text>


</svg>